<svg width="55" height="55" viewBox="0 0 55 55" fill="none" xmlns="http://www.w3.org/2000/svg">
<circle cx="27.5" cy="27.5" r="27.5" fill="white"/>
<path fill-rule="evenodd" clip-rule="evenodd" d="M20.2606 21.1941C20.5192 21.1941 20.9072 21.0324 21.0688 20.9112C21.348 22.5864 19.9694 23.5383 19.2238 24.0531C19.1061 24.1344 19.0042 24.2047 18.927 24.2653C18.61 24.5144 18.5063 24.9841 18.4137 25.4031C18.341 25.7319 18.2753 26.0295 18.1188 26.1647C17.4698 26.7251 17.0793 26.3489 16.9156 26.1913C16.8551 26.133 16.8256 26.1047 16.8256 26.1647C16.8256 26.6328 17.0586 26.8301 17.1412 26.9C17.1727 26.9267 17.1824 26.9349 17.1489 26.9325C16.333 26.8742 16.0844 26.4797 15.9486 26.2642C15.8961 26.1808 15.8604 26.1243 15.8154 26.1243C15.7749 26.1243 15.6537 27.4578 16.3003 28.0236C16.8369 28.4932 17.2859 28.3702 17.6007 28.2839C17.8107 28.2264 17.961 28.1852 18.038 28.3469C18.4421 29.1955 20.3414 28.7106 20.0585 28.7106C18.5039 28.7106 18.8058 27.4982 18.9674 27.4982C19.026 27.4982 19.1059 27.3655 19.232 27.1558C19.4537 26.787 19.8186 26.1803 20.4626 25.6393C21.2952 24.94 22.3216 24.7503 23.8572 24.7503C25.5038 24.7503 26.548 25.6003 26.8505 25.8466C26.934 25.9146 26.961 25.9365 26.9284 25.8818C25.4649 23.4204 22.4409 23.9617 21.5294 24.1249C21.3334 24.1599 21.2351 24.1775 21.2709 24.1441C22.2058 23.2695 23.5458 22.8901 24.5016 22.6194C24.8265 22.5275 25.1069 22.448 25.312 22.366C25.5748 22.2609 25.9553 22.0291 26.3956 21.7609C27.3096 21.2042 28.4815 20.4905 29.3935 20.4263C32.2627 20.2242 32.3839 20.1434 32.7881 19.8605C32.8377 19.7943 32.6841 19.7824 32.4078 19.7608C32.0092 19.7296 31.355 19.6785 30.6867 19.416C28.7218 18.6441 27.4795 19.4262 27.1177 19.654C27.0357 19.7056 26.999 19.7287 27.0093 19.6989C27.6795 17.7552 29.0048 17.3821 32.1622 16.4932L32.5456 16.3852C35.9805 15.4153 36.9426 12.0647 36.8292 12.2632C36.1826 13.3947 34.0408 14.405 33.3134 14.6879C32.2415 15.1048 29.7572 15.3345 30.1209 15.0516C33.3364 12.5508 31.9798 8.70707 31.9798 9.19199C31.9798 11.0913 30.7538 12.2156 29.7572 12.9906C28.6661 13.8393 25.1232 15.0266 25.7969 14.3242C27.6963 12.3441 26.548 7.65636 26.4031 8.70707C26.0866 11.0014 25.2281 12.0566 24.6992 12.7066L24.6654 12.7482C23.7886 13.8274 21.141 15.744 21.2709 15.3345C21.7962 13.6776 20.9196 11.2934 20.9476 11.8995C21.067 14.4862 19.6972 15.7013 19.3081 16.0465L19.2907 16.0619C19.2002 16.1423 19.0445 16.2704 18.8568 16.4249L18.8568 16.4249L18.8567 16.4249L18.8567 16.425C18.2903 16.8909 17.4321 17.597 17.1893 17.9612C17.024 18.2092 16.7448 18.729 16.6236 19.2139C16.5293 19.5911 16.2507 20.483 15.7749 20.9112C15.3708 21.2749 14.5896 21.45 14.2797 21.4365C13.8756 21.45 12.9462 21.4931 12.4612 21.5578C11.9763 21.6224 11.451 21.8811 11.1681 22.1236C11.0873 22.1928 10.7827 22.5962 11.0064 23.4167C11.1712 24.0209 11.5776 24.0465 11.8598 24.0643C11.9929 24.0727 12.0984 24.0793 12.1379 24.1441C12.5825 24.8715 13.4311 24.765 13.3503 24.7503C12.9058 24.6694 12.8007 23.4975 12.9462 23.6592C13.3099 24.0633 13.916 23.9959 13.7948 23.942C13.4311 23.7804 13.3907 23.3763 13.5119 23.255C13.714 23.053 13.9564 22.9318 14.4818 22.9318C14.6551 22.9318 14.844 22.9436 15.0408 22.956H15.0408C15.3571 22.9759 15.6935 22.9971 16.0174 22.9722C16.4377 22.9399 16.9738 22.8375 17.3106 22.4064C17.6473 21.9754 18.2885 21.2587 18.8058 21.1941C19.2642 21.1368 19.6414 21.1607 19.9373 21.1795L19.9373 21.1795C20.0588 21.1872 20.1665 21.1941 20.2606 21.1941ZM17.5126 23.1742C17.8036 22.7863 18.496 22.7971 18.8058 22.8105C18.0962 22.9542 17.7419 23.5676 17.3931 24.1717C17.2513 24.4172 17.1104 24.6613 16.9469 24.8715C16.4741 25.4794 16.0129 25.4787 15.4385 25.4778L15.3708 25.4777C14.9133 25.4777 14.64 25.823 14.5334 25.9576C14.4988 26.0014 14.4818 26.0228 14.4818 26.003C14.4818 25.2977 15.2264 25.1742 15.3384 25.1556C15.3475 25.1541 15.3524 25.1533 15.3524 25.1529C15.3524 25.1524 15.3455 25.1526 15.3308 25.153C15.3089 25.1535 15.2697 25.1544 15.2092 25.1544C14.4466 25.1544 14.2746 25.3146 13.9221 25.643C13.8824 25.68 13.8403 25.7192 13.7948 25.7606C13.5175 26.0127 13.362 26.3839 13.2377 26.6808C13.1628 26.8597 13.0992 27.0116 13.027 27.0941C12.8283 27.3212 12.809 27.329 12.465 27.4676L12.4649 27.4676C12.3192 27.5263 12.1152 27.6085 11.8147 27.7407C11.0064 28.0963 11.2893 29.1551 11.5318 29.64C11.2758 29.4515 10.7963 28.848 10.9256 27.9428C11.0347 27.1793 11.8245 26.8205 12.0785 26.7052C12.1289 26.6823 12.1582 26.669 12.1568 26.664C12.1549 26.6572 12.0941 26.6663 11.949 26.6881L11.9359 26.69C11.1277 26.8113 10.9256 26.1647 11.0873 26.2859C11.5114 26.604 12.0167 26.4071 12.2996 26.1647C12.6498 25.7073 13.5119 24.7436 14.1585 24.5482C14.6602 24.3966 15.1152 24.4177 15.5138 24.4361C15.7573 24.4474 15.9798 24.4576 16.1791 24.427C16.6446 24.3554 17.0467 23.8077 17.3853 23.3465C17.4288 23.2873 17.4712 23.2294 17.5126 23.1742ZM43.3758 22.5681C43.2545 21.6386 41.4274 19.1921 39.9408 18.3249C38.486 17.4763 36.9504 16.7085 34.5661 16.3852C34.4547 16.3701 34.3523 16.45 34.1981 16.5705C33.9091 16.7962 33.438 17.1641 32.3839 17.3146C30.1209 17.6379 28.5449 17.9612 27.9387 18.8098C27.9204 18.8356 27.9829 18.8259 28.1156 18.8054C28.4918 18.7474 29.4318 18.6024 30.6867 18.9311C32.3839 19.3756 33.475 19.4564 33.8792 19.1331C34.2833 18.8098 33.5155 20.5617 32.3839 20.6283C32.0356 20.6489 32.1507 20.695 32.5441 20.8529C33.4285 21.2078 35.7198 22.1272 37.3141 24.5886C39.6175 28.1448 39.6579 31.6606 39.4963 32.7113C39.4866 32.7742 39.4761 32.848 39.4641 32.9316L39.4641 32.9317C39.2763 34.2456 38.7394 38.0008 35.7381 40.4702C32.5456 43.097 30.1643 43.9456 27.6962 43.9456C25.2312 43.9456 23.1298 43.8243 20.2606 42.0463C18.6458 41.0456 16.394 38.4497 15.8962 36.8736C15.8652 36.7757 16.7448 41.5613 21.3921 44.3093C25.1099 46.5076 28.1812 46.3702 30.4442 45.9257C32.6886 45.4849 37.0716 43.1778 38.8901 39.1771C39.2943 38.288 38.5341 42.7736 36.7079 44.1072C36.4138 44.3221 38.9305 43.4202 40.7086 39.46C42.4867 35.4997 42.4867 31.2969 40.9511 29.1147C40.7508 28.83 43.9552 30.5291 43.497 35.4593C43.4288 36.1935 45.1943 30.327 42.4867 25.4373C40.0926 21.1136 37.0851 19.4968 35.9805 19.0523C37.6104 19.0523 40.8703 19.6989 43.3758 22.5681ZM26.1606 22.5681C24.8675 23.2551 23.1298 23.4975 22.9277 23.4975C23.251 23.5784 24.8096 23.7395 25.7565 23.5784C27.6501 23.256 29.1688 23.6032 30.1123 23.8189L30.1209 23.8208C33.3538 24.5347 38.8901 28.1852 37.0716 35.8634C36.5957 37.8731 35.39 39.6067 34.3641 40.7127C32.1702 43.0777 28.7094 43.5232 27.5565 43.6048C30.8131 43.4243 33.4541 42.4178 35.8593 39.7428C37.1097 38.3522 38.2838 36.2414 38.7285 33.8428C39.2942 30.7915 38.2492 27.6853 36.5463 25.316C34.6874 22.7297 31.212 21.1941 29.9593 21.0325C28.9929 20.9078 28.0265 21.4805 27.0415 22.0642C26.7497 22.2371 26.4562 22.4111 26.1606 22.5681ZM27.1709 43.6223C27.3004 43.6177 27.4289 43.6119 27.5565 43.6048C27.291 43.6236 27.148 43.6231 27.1709 43.6223ZM30.7675 24.5078C31.6835 25.1275 33.5525 26.9867 34.162 29.3572C34.8894 32.1859 34.705 36.398 30.6059 39.2983C26.3223 42.3291 21.9579 40.4298 21.5133 40.0661C21.0688 39.7024 23.2602 42.2887 28.5449 41.6825C32.7726 41.1976 35.529 36.7928 35.8593 34.651C36.2769 31.9435 36.0209 26.8112 30.7675 24.5078ZM19.5332 18.2036C19.2638 18.1766 18.6845 18.1793 18.5229 18.4056C18.3307 18.6747 18.2848 18.7975 18.1764 19.087C18.1709 19.1019 18.1651 19.1172 18.1592 19.133C18.038 19.4563 17.7551 19.7796 17.5126 19.8604C17.2702 19.9413 18.038 19.9413 18.3613 19.82C18.6845 19.6988 18.8866 19.5776 19.1291 19.2139C19.2432 19.0426 19.2857 18.8445 19.324 18.666C19.3671 18.4652 19.4049 18.2891 19.5332 18.2036Z" fill="#ED0E10"/>
</svg>
